<svg width="20" height="17" viewBox="0 0 20 17" fill="none" xmlns="http://www.w3.org/2000/svg">
<path d="M17 6.5V1.99414H4V1C8.61293 1 13.383 1 18 1C18 2.63105 18 6 18 6L17 6.5Z" fill="#2B87DA" stroke="#2B87DA" stroke-width="0.5"/>
<path d="M2.80687 4.69043H2.80045" stroke="#2B87DA" stroke-width="0.5"/>
<path d="M18.179 8.29568C18.4449 8.18473 18.7229 8.08905 19 8.00001L6.40971 14.407L3.4991 10.429C4.52101 11.3267 5.42687 12.3366 6.40713 13.2758C10.3362 11.63 14.255 9.95571 18.179 8.29568Z" fill="#2B87DA" stroke="#2B87DA" stroke-width="0.3" stroke-linejoin="round"/>
<path d="M18 16H17V11.5L18 11C18.0183 12.6195 18 14.3805 18 16Z" fill="#2B87DA" stroke="#2B87DA" stroke-width="0.5"/>
<path d="M15 4.01765C15 4.22353 15 4.82353 15 5H2V16H1C1 12.6706 1 7.34118 1 4L15 4.01765Z" fill="#2B87DA" stroke="#2B87DA" stroke-width="0.5"/>
<path d="M13.5 7.03025C13.5 7.35045 13.5 7.67065 13.5 8H3V7.01195C6.64989 7.01195 9.82494 6.97535 13.5 7.03025Z" fill="#2B87DA" stroke="#2B87DA" stroke-width="0.5"/>
</svg>
